<svg xmlns="http://www.w3.org/2000/svg" xmlns:xlink="http://www.w3.org/1999/xlink" viewBox="0 0 246.15 218.54"><defs><style>.cls-1,.cls-11{fill:#fff;}.cls-2{fill:#93947a;}.cls-3{fill:url(#New_Gradient_Swatch);}.cls-4{fill:url(#New_Gradient_Swatch-2);}.cls-5{fill:#f9f9f9;}.cls-6{fill:url(#New_Gradient_Swatch-3);}.cls-7{fill:url(#New_Gradient_Swatch-4);}.cls-8{fill:url(#New_Gradient_Swatch-5);}.cls-9{fill:url(#New_Gradient_Swatch-6);}.cls-10{fill:url(#New_Gradient_Swatch-7);}.cls-11{stroke-linejoin:round;stroke-width:4px;stroke:url(#New_Gradient_Swatch-8);}</style><linearGradient id="New_Gradient_Swatch" y1="53.82" x2="87.57" y2="53.82" gradientUnits="userSpaceOnUse"><stop offset="0"/><stop offset="1"/></linearGradient><linearGradient id="New_Gradient_Swatch-2" x1="81.11" y1="53.82" x2="171.92" y2="53.82" xlink:href="#New_Gradient_Swatch"/><linearGradient id="New_Gradient_Swatch-3" x1="173.46" y1="35.08" x2="246.15" y2="35.08" xlink:href="#New_Gradient_Swatch"/><linearGradient id="New_Gradient_Swatch-4" x1="7.99" y1="132.44" x2="47.85" y2="132.44" xlink:href="#New_Gradient_Swatch"/><linearGradient id="New_Gradient_Swatch-5" x1="40.55" y1="132.44" x2="80.41" y2="132.44" xlink:href="#New_Gradient_Swatch"/><linearGradient id="New_Gradient_Swatch-6" x1="69.74" y1="162.47" x2="157.45" y2="162.47" xlink:href="#New_Gradient_Swatch"/><linearGradient id="New_Gradient_Swatch-7" x1="145.24" y1="162.47" x2="243.76" y2="162.47" xlink:href="#New_Gradient_Swatch"/><linearGradient id="New_Gradient_Swatch-8" x1="42.13" y1="48.98" x2="62.12" y2="48.98" xlink:href="#New_Gradient_Swatch"/></defs><g id="Layer_2" data-name="Layer 2"><g id="swap_mats_copy" data-name="swap_mats copy"><polygon class="cls-1" points="119.36 17.26 111.75 55.1 141.13 53.82 153.45 24.8 128.51 13.26 119.36 17.26"/><path class="cls-2" d="M35.3,84.83H60.7l.56,18.81H83.57L78.52,4H51.44L4,103.64H26.74ZM59.15,32.49l1,33h-16Z"/><path class="cls-3" d="M78.52,4l5,99.64H61.26L60.7,84.83H35.3l-8.56,18.81H4L51.44,4H78.52M44.13,65.47h16l-1-33-15,33M78.52,0H51.44a4,4,0,0,0-3.62,2.28L.39,101.92A4,4,0,0,0,4,107.64H26.74a4,4,0,0,0,3.64-2.34l7.5-16.47H56.82l.44,14.93a4,4,0,0,0,4,3.88H83.57a4,4,0,0,0,4-4.2L82.51,3.8a4,4,0,0,0-4-3.8ZM50.35,61.47,55.66,49.8,56,61.47Z"/><path class="cls-2" d="M115.15,68.84h8.7q5.9,0,8.28,2t2.38,6.32a25.24,25.24,0,0,1-.28,3.43c-.19,1.36-.37,2.74-.56,4.15l-2.52,18.94H154l2.25-18.1c.28-2.06.6-4.4,1-7a47.5,47.5,0,0,0,.56-6.31q0-7.72-4.84-11.23a19.08,19.08,0,0,0-7.81-3,31.68,31.68,0,0,0,8.72-3.88,29.49,29.49,0,0,0,10.39-11.44,34,34,0,0,0,3.65-15.78q0-10.81-7.37-16.85T138.86,4H106.31l-21.2,99.64h22.6Zm9.4-44.77h9.26q4.92,0,7.44,2.24a8.21,8.21,0,0,1,2.53,6.46A17.49,17.49,0,0,1,142,40.84a14.15,14.15,0,0,1-5.19,5.68,15,15,0,0,1-8.14,2.11h-9.26Z"/><path class="cls-4" d="M138.86,4q14.32,0,21.69,6t7.37,16.85a34,34,0,0,1-3.65,15.78A29.49,29.49,0,0,1,153.88,54.1,31.68,31.68,0,0,1,145.16,58,19.08,19.08,0,0,1,153,61q4.84,3.51,4.84,11.23a47.5,47.5,0,0,1-.56,6.31c-.38,2.62-.7,5-1,7L154,103.64H131.15l2.52-18.94c.19-1.41.37-2.79.56-4.15a25.24,25.24,0,0,0,.28-3.43q0-4.35-2.38-6.32t-8.28-2h-8.7l-7.44,34.8H85.11L106.31,4h32.55m-19.5,44.63h9.26a15,15,0,0,0,8.14-2.11A14.15,14.15,0,0,0,142,40.84a17.49,17.49,0,0,0,1.83-8.07,8.21,8.21,0,0,0-2.53-6.46q-2.52-2.23-7.44-2.24h-9.26l-5.19,24.56M138.86,0H106.31a4,4,0,0,0-3.92,3.17L81.2,102.81a4,4,0,0,0,3.91,4.83h22.6a4,4,0,0,0,3.91-3.16l6.76-31.64h5.47c4.13,0,5.44.8,5.74,1,.76.63.92,2.1.92,3.23a22.36,22.36,0,0,1-.24,2.89c-.19,1.36-.38,2.75-.56,4.16l-2.53,18.94a4,4,0,0,0,4,4.53H154a4,4,0,0,0,4-3.51L160.24,86c.27-2,.6-4.33,1-6.94a51.35,51.35,0,0,0,.6-6.88c0-6.41-2.14-11.24-6.36-14.37l.6-.38a33.55,33.55,0,0,0,11.77-13,38,38,0,0,0,4.1-17.61c0-8.43-3-15.14-8.84-19.94C157.46,2.33,149.31,0,138.86,0ZM127.79,28.07h6c1.55,0,3.63.21,4.78,1.23.51.45,1.19,1.31,1.19,3.47A13.5,13.5,0,0,1,138.39,39a10.13,10.13,0,0,1-3.75,4.11,11,11,0,0,1-6,1.5h-4.33l3.5-16.56Z"/><polygon class="cls-5" points="181.25 58.31 191.91 66.17 207.91 48.21 217.17 66.17 229.24 58.31 219.84 41.89 239.21 42.03 242.15 28.14 222.37 28.28 238.36 11.86 227.84 4 211.7 21.96 202.44 4 190.37 11.86 199.77 28.28 180.4 28.14 177.46 42.03 197.38 41.89 181.25 58.31"/><path class="cls-6" d="M227.84,4l10.52,7.86-16,16.42,19.78-.14L239.21,42l-19.37-.14,9.4,16.42-12.07,7.86-9.26-18-16,18-10.66-7.86,16.13-16.42L177.46,42l2.94-13.89,19.37.14-9.4-16.42L202.44,4l9.26,18L227.84,4m0-4a4,4,0,0,0-3,1.33L212.6,15,206,2.17a4,4,0,0,0-2.53-2,4,4,0,0,0-1-.13,4,4,0,0,0-2.19.65L188.19,8.51a4,4,0,0,0-1.29,5.34l5.94,10.38-12.41-.09h0a4,4,0,0,0-3.91,3.17l-3,13.89A4,4,0,0,0,177.46,46h0l10.3-.07-9.39,9.55a4,4,0,0,0,.48,6l10.67,7.86a4,4,0,0,0,5.36-.56L207,55.22,213.62,68a4,4,0,0,0,2.53,2,4,4,0,0,0,3.2-.52l12.07-7.86a4,4,0,0,0,1.29-5.34l-5.94-10.38,12.41.09h0a4,4,0,0,0,3.91-3.17L246.07,29a4,4,0,0,0-3.92-4.83h0l-10.21.07,9.32-9.56a4,4,0,0,0-.47-6L230.23.79A4,4,0,0,0,227.84,0Z"/><polygon class="cls-5" points="31.08 109.84 16.48 134.69 11.99 155.03 35.57 155.03 40.34 132.58 31.08 132.58 43.85 109.84 31.08 109.84"/><path class="cls-7" d="M43.85,109.84,31.08,132.58h9.26L35.57,155H12l4.49-20.35,14.6-24.84H43.85m0-4H31.08a4,4,0,0,0-3.45,2L13,132.66a4,4,0,0,0-.46,1.16L8.08,154.17A4,4,0,0,0,12,159H35.57a4,4,0,0,0,3.91-3.17l4.77-22.45a4,4,0,0,0-3.91-4.83H37.91l9.42-16.78a4,4,0,0,0-3.48-6Z"/><polygon class="cls-5" points="76.41 109.84 63.63 109.84 49.04 134.69 44.55 155.03 68.13 155.03 72.9 132.58 63.63 132.58 76.41 109.84"/><path class="cls-8" d="M76.41,109.84,63.63,132.58H72.9L68.13,155H44.55L49,134.68l14.59-24.84H76.41m0-4H63.63a4,4,0,0,0-3.44,2l-14.6,24.84a4,4,0,0,0-.46,1.16l-4.49,20.35A4,4,0,0,0,44.55,159H68.13A4,4,0,0,0,72,155.86l4.77-22.45a4,4,0,0,0-3.91-4.83H70.47l9.42-16.78a4,4,0,0,0-3.48-6Z"/><path class="cls-2" d="M136.75,160q-5.06-3.87-13.75-6.39c-4.31-1.21-7.7-2.32-10.18-3.3a11.94,11.94,0,0,1-5.26-3.51,8.45,8.45,0,0,1-1.54-5.26,11.17,11.17,0,0,1,3.22-8.35q3.23-3.15,10.25-3.16,5.9,0,8.56,2.25c1.77,1.5,2.66,3.74,2.66,6.74,0,1.12,0,2.26-.14,3.43a17.54,17.54,0,0,1-.42,2.88l22.32-1a39.87,39.87,0,0,0,.7-4.28,44.6,44.6,0,0,0,.28-5.13,22.76,22.76,0,0,0-7.65-17.61q-7.65-6.94-22.94-6.94-13.48,0-22.18,4.49a30.1,30.1,0,0,0-13,12.21,34.72,34.72,0,0,0-4.28,17.12,25.66,25.66,0,0,0,2.67,12.35A21.14,21.14,0,0,0,94,164.65a51.13,51.13,0,0,0,13.26,5.26,49.89,49.89,0,0,1,8.07,2.46,21.25,21.25,0,0,1,5,2.8,7.92,7.92,0,0,1,2.53,3.37,12.43,12.43,0,0,1,.7,4.28,12.3,12.3,0,0,1-1.76,6.88,10.22,10.22,0,0,1-4.91,3.93,21.08,21.08,0,0,1-7.79,1.26q-6.31,0-9.54-2.25c-2.15-1.49-3.23-4.07-3.23-7.71a38.41,38.41,0,0,1,.28-4.21c.19-1.69.33-2.95.42-3.79l-22.31,1c-.28,1.59-.52,3.25-.7,5a61.87,61.87,0,0,0-.28,6.53q0,11.37,7.44,18.24t23.29,6.88q14,0,23.3-4.42a30.2,30.2,0,0,0,13.75-12.35,36,36,0,0,0,4.49-18,27.54,27.54,0,0,0-2.1-10.94A22,22,0,0,0,136.75,160Z"/><path class="cls-9" d="M122.86,110.41q15.29,0,22.94,6.94A22.76,22.76,0,0,1,153.45,135a44.6,44.6,0,0,1-.28,5.13,39.87,39.87,0,0,1-.7,4.28l-22.32,1a17.54,17.54,0,0,0,.42-2.88c.1-1.17.14-2.31.14-3.43,0-3-.89-5.24-2.66-6.74s-4.63-2.25-8.56-2.25q-7,0-10.25,3.16a11.17,11.17,0,0,0-3.22,8.35,8.45,8.45,0,0,0,1.54,5.26,11.94,11.94,0,0,0,5.26,3.51c2.48,1,5.87,2.09,10.18,3.3q8.7,2.52,13.75,6.39a22,22,0,0,1,7.16,8.77,27.54,27.54,0,0,1,2.1,10.94,36,36,0,0,1-4.49,18,30.2,30.2,0,0,1-13.75,12.35q-9.27,4.41-23.3,4.42-15.85,0-23.29-6.88t-7.44-18.24a61.87,61.87,0,0,1,.28-6.53c.18-1.73.42-3.39.7-5l22.31-1c-.09.84-.23,2.1-.42,3.79a38.41,38.41,0,0,0-.28,4.21c0,3.64,1.08,6.22,3.23,7.71s5.33,2.25,9.54,2.25a21.08,21.08,0,0,0,7.79-1.26,10.22,10.22,0,0,0,4.91-3.93,12.3,12.3,0,0,0,1.76-6.88,12.43,12.43,0,0,0-.7-4.28,7.92,7.92,0,0,0-2.53-3.37,21.25,21.25,0,0,0-5-2.8,49.89,49.89,0,0,0-8.07-2.46A51.13,51.13,0,0,1,94,164.65a21.14,21.14,0,0,1-7.93-8.07,25.66,25.66,0,0,1-2.67-12.35,34.72,34.72,0,0,1,4.28-17.12,30.1,30.1,0,0,1,13-12.21q8.7-4.5,22.18-4.49m0-4c-9.59,0-17.67,1.66-24,4.93A34.22,34.22,0,0,0,84.2,125.17a38.83,38.83,0,0,0-4.78,19.06,29.7,29.7,0,0,0,3.15,14.26A25.16,25.16,0,0,0,92,168.08a55.53,55.53,0,0,0,14.3,5.7l.13,0a46,46,0,0,1,7.4,2.24,17.43,17.43,0,0,1,4,2.23,4,4,0,0,1,1.29,1.65,8.35,8.35,0,0,1,.45,2.89,8.5,8.5,0,0,1-1.1,4.68,6.26,6.26,0,0,1-3,2.41,17.27,17.27,0,0,1-6.31,1c-4.18,0-6.25-.83-7.25-1.53-.38-.26-1.52-1.05-1.52-4.43a35.2,35.2,0,0,1,.26-3.77c.18-1.69.32-2.95.42-3.79a4,4,0,0,0-4-4.44h-.17l-22.32,1a4,4,0,0,0-3.76,3.3c-.3,1.68-.54,3.45-.74,5.25a67,67,0,0,0-.3,7c0,8.7,2.93,15.83,8.72,21.18s14.45,7.94,26,7.94c9.91,0,18.33-1.62,25-4.81a34.23,34.23,0,0,0,15.51-14,40,40,0,0,0,5-20,31.66,31.66,0,0,0-2.43-12.52,26.07,26.07,0,0,0-8.4-10.37,46,46,0,0,0-15.07-7.05c-4.17-1.18-7.46-2.24-9.81-3.18a8.1,8.1,0,0,1-3.55-2.2,4.66,4.66,0,0,1-.73-2.85,7.18,7.18,0,0,1,2-5.49c1.35-1.32,3.92-2,7.45-2,3.85,0,5.4.82,6,1.31.31.26,1.24,1,1.24,3.68,0,1,0,2-.12,3.12a15.19,15.19,0,0,1-.32,2.23,4,4,0,0,0,3.88,5h.18l22.31-1a4,4,0,0,0,3.73-3.09,44.38,44.38,0,0,0,.77-4.72,48.2,48.2,0,0,0,.31-5.59,26.69,26.69,0,0,0-9-20.57c-5.84-5.3-14.46-8-25.63-8Z"/><polygon class="cls-2" points="202.19 175.38 204.67 123.88 192.04 123.88 172.67 175.38 182.64 112.65 161.73 112.65 149.24 212.29 171.27 212.29 189.58 165.64 187.83 212.29 210 212.29 239.76 112.65 218.85 112.65 202.19 175.38"/><path class="cls-10" d="M239.76,112.65,210,212.29H187.83l1.75-46.65-18.31,46.65h-22l12.49-99.64h20.91l-10,62.73L192,123.88h12.63l-2.48,51.5,16.66-62.73h20.91m0-4H218.85a4,4,0,0,0-3.87,3l-7,26.29.67-13.84a4,4,0,0,0-4-4.19H192a4,4,0,0,0-3.74,2.59l-5.49,14.59,3.78-23.78a4,4,0,0,0-4-4.63H161.73a4,4,0,0,0-4,3.5l-12.49,99.64a4,4,0,0,0,4,4.5h22a4,4,0,0,0,3.72-2.54L184.7,189l-.87,23.12a4,4,0,0,0,1.12,2.93,4,4,0,0,0,2.88,1.22H210a4,4,0,0,0,3.83-2.85l29.75-99.64a4,4,0,0,0-3.83-5.15Z"/><polygon class="cls-11" points="44.13 65.47 59.13 32.49 60.12 65.47 44.13 65.47"/></g></g></svg>