<svg xmlns="http://www.w3.org/2000/svg" xmlns:xlink="http://www.w3.org/1999/xlink" viewBox="0 0 256 256"><defs><style>.cls-1{fill:none;}.cls-2{fill:#93947a;}.cls-3{fill:url(#New_Gradient_Swatch);}.cls-4{fill:url(#New_Gradient_Swatch-2);}.cls-5{fill:#fff;}.cls-6{fill:url(#New_Gradient_Swatch-3);}.cls-7{fill:url(#New_Gradient_Swatch-4);}.cls-8{fill:url(#New_Gradient_Swatch-5);}</style><linearGradient id="New_Gradient_Swatch" x1="1.41" y1="78.18" x2="88.98" y2="78.18" gradientUnits="userSpaceOnUse"><stop offset="0"/><stop offset="1"/></linearGradient><linearGradient id="New_Gradient_Swatch-2" x1="82.52" y1="78.18" x2="173.32" y2="78.18" xlink:href="#New_Gradient_Swatch"/><linearGradient id="New_Gradient_Swatch-3" x1="71.15" y1="186.83" x2="158.86" y2="186.83" xlink:href="#New_Gradient_Swatch"/><linearGradient id="New_Gradient_Swatch-4" x1="146.65" y1="186.83" x2="245.17" y2="186.83" xlink:href="#New_Gradient_Swatch"/><linearGradient id="New_Gradient_Swatch-5" x1="43.54" y1="73.34" x2="63.53" y2="73.34" xlink:href="#New_Gradient_Swatch"/></defs><g id="Layer_2" data-name="Layer 2"><g id="swap_mats_copy" data-name="swap_mats copy"><rect id="safearea" class="cls-1" width="256" height="256"/><path class="cls-2" d="M79.93,28.36H52.84L5.41,128H28.14l8.57-18.81h25.4L62.67,128H85ZM61.53,89.83h-16l15-33v0l0,0,1,33Z"/><path class="cls-3" d="M79.93,28.36,85,128H62.67l-.56-18.81H36.71L28.14,128H5.41L52.84,28.36H79.93m0-4H52.84a4,4,0,0,0-3.61,2.28L1.8,126.28A4,4,0,0,0,5.41,132H28.14a4,4,0,0,0,3.64-2.34l7.5-16.47H58.23l.44,14.93a4,4,0,0,0,4,3.88H85a4,4,0,0,0,2.9-1.24,4.07,4.07,0,0,0,1.1-3L83.92,28.16a4,4,0,0,0-4-3.8Z"/><path class="cls-2" d="M116.56,93.2h8.7c3.93,0,6.68.65,8.28,2s2.38,3.42,2.38,6.32a25.24,25.24,0,0,1-.28,3.43c-.19,1.36-.37,2.74-.56,4.14l-2.53,19h22.88l2.24-18.1c.29-2.06.61-4.4,1-7a47.49,47.49,0,0,0,.56-6.32q0-7.71-4.84-11.22a19.19,19.19,0,0,0-7.81-3,32,32,0,0,0,8.72-3.88A29.38,29.38,0,0,0,165.67,67a33.85,33.85,0,0,0,3.65-15.79q0-10.8-7.37-16.84t-21.68-6H107.71L86.52,128h22.6ZM126,48.43h9.26q4.91,0,7.44,2.24a8.2,8.2,0,0,1,2.52,6.46,17.49,17.49,0,0,1-1.82,8.07,14.22,14.22,0,0,1-5.19,5.68A15.1,15.1,0,0,1,130,73h-9.26Z"/><path class="cls-4" d="M140.27,28.36q14.32,0,21.68,6t7.37,16.84A33.85,33.85,0,0,1,165.67,67a29.38,29.38,0,0,1-10.38,11.44,32,32,0,0,1-8.72,3.88,19.19,19.19,0,0,1,7.81,3q4.83,3.51,4.84,11.22a47.49,47.49,0,0,1-.56,6.32c-.38,2.62-.7,5-1,7L155.43,128H132.55l2.53-19c.19-1.4.37-2.78.56-4.14a25.24,25.24,0,0,0,.28-3.43q0-4.35-2.38-6.32c-1.6-1.31-4.35-2-8.28-2h-8.7L109.12,128H86.52l21.19-99.64h32.56M120.77,73H130a15.1,15.1,0,0,0,8.14-2.11,14.22,14.22,0,0,0,5.19-5.68,17.49,17.49,0,0,0,1.82-8.07,8.2,8.2,0,0,0-2.52-6.46q-2.53-2.23-7.44-2.24H126L120.77,73m19.5-48.63H107.71a4,4,0,0,0-3.91,3.17L82.61,127.17A4,4,0,0,0,86.52,132h22.6a4,4,0,0,0,3.91-3.16l6.76-31.64h5.47c4.13,0,5.43.8,5.74,1,.76.63.92,2.1.92,3.23a22.5,22.5,0,0,1-.24,2.89c-.19,1.36-.38,2.75-.56,4.16l-2.53,18.94a4,4,0,0,0,4,4.53h22.88a4,4,0,0,0,4-3.51l2.24-18.1c.28-2,.6-4.33,1-6.94a51.35,51.35,0,0,0,.6-6.89c0-6.4-2.14-11.24-6.36-14.36l.6-.38a33.55,33.55,0,0,0,11.77-13,38,38,0,0,0,4.09-17.62c0-8.42-3-15.13-8.83-19.93-5.62-4.61-13.77-6.94-24.22-6.94ZM129.2,52.43h6c1.55,0,3.63.21,4.78,1.23.51.45,1.18,1.31,1.18,3.47a13.5,13.5,0,0,1-1.38,6.25,10.19,10.19,0,0,1-3.75,4.11,11,11,0,0,1-6,1.5H125.7l3.5-16.56Z"/><path class="cls-5" d="M229.25,28.36l10.52,7.86-16,16.42,19.79-.14-2.95,13.89-19.36-.14,9.4,16.42-12.07,7.86-9.26-18-16,18-10.67-7.86,16.14-16.42-19.93.14,2.95-13.89,19.37.14-9.4-16.42,12.07-7.86,9.26,18,16.14-18m0-4a4,4,0,0,0-3,1.33L214,39.34,207.4,26.53a4,4,0,0,0-2.53-2,4,4,0,0,0-1-.13,4,4,0,0,0-2.19.65l-12.07,7.86a4,4,0,0,0-1.29,5.34l5.95,10.38-12.41-.09h0a4,4,0,0,0-3.91,3.17l-3,13.89a4,4,0,0,0,3.91,4.83h0l10.3-.07-9.39,9.55A4,4,0,0,0,178.67,83a4,4,0,0,0,1.61,2.9L191,93.75a4,4,0,0,0,5.36-.56l12.12-13.61L215,92.36a4,4,0,0,0,2.53,2,4,4,0,0,0,3.2-.52L232.83,86a4,4,0,0,0,1.29-5.34L228.18,70.3l12.4.09h0a4,4,0,0,0,3.92-3.17l2.94-13.89a4,4,0,0,0-.81-3.36,4,4,0,0,0-3.1-1.47h0l-10.21.07L242.64,39a4,4,0,0,0-.48-6l-10.52-7.86a4,4,0,0,0-2.39-.79Z"/><path class="cls-5" d="M45.25,134.2,32.48,156.94h9.27L37,179.39H13.4L17.89,159,32.48,134.2H45.25m0-4H32.48a4,4,0,0,0-3.45,2L14.44,157a4,4,0,0,0-.46,1.16L9.49,178.53a4,4,0,0,0,3.91,4.86H37a4,4,0,0,0,3.92-3.17l4.77-22.45a4,4,0,0,0-3.91-4.83H39.32l9.42-16.78a4,4,0,0,0-3.49-6Z"/><path class="cls-5" d="M77.81,134.2,65,156.94H74.3l-4.77,22.45H46L50.45,159,65,134.2H77.81m0-4H65a4,4,0,0,0-3.45,2L47,157a4,4,0,0,0-.46,1.16l-4.49,20.35A4,4,0,0,0,46,183.39H69.53a4,4,0,0,0,3.92-3.17l4.77-22.45a4,4,0,0,0-3.92-4.83H71.88l9.42-16.78a4,4,0,0,0-3.49-6Z"/><path class="cls-2" d="M138.16,184.37q-5.06-3.85-13.76-6.38-6.45-1.83-10.17-3.3a11.94,11.94,0,0,1-5.26-3.51,8.45,8.45,0,0,1-1.55-5.26,11.17,11.17,0,0,1,3.23-8.35q3.22-3.16,10.25-3.16,5.89,0,8.56,2.25t2.66,6.73c0,1.13-.05,2.27-.14,3.44a17.54,17.54,0,0,1-.42,2.88l22.32-1a40.29,40.29,0,0,0,.7-4.28,47,47,0,0,0,.28-5.13,22.76,22.76,0,0,0-7.65-17.61q-7.65-6.94-23-6.94-13.47,0-22.17,4.49a30.1,30.1,0,0,0-13,12.21,34.61,34.61,0,0,0-4.28,17.12,25.78,25.78,0,0,0,2.66,12.35A21.29,21.29,0,0,0,95.42,189a51.57,51.57,0,0,0,13.27,5.26,51,51,0,0,1,8.07,2.45,21.24,21.24,0,0,1,5,2.81,7.89,7.89,0,0,1,2.52,3.37,13.91,13.91,0,0,1-1.05,11.16A10.39,10.39,0,0,1,118.3,218a21.11,21.11,0,0,1-7.79,1.26q-6.32,0-9.54-2.25c-2.16-1.49-3.23-4.07-3.23-7.72a38.72,38.72,0,0,1,.28-4.21q.28-2.52.42-3.78l-22.31,1c-.28,1.59-.52,3.25-.7,5a61.87,61.87,0,0,0-.28,6.53q0,11.35,7.43,18.24t23.3,6.88q14,0,23.3-4.42a30.25,30.25,0,0,0,13.75-12.35,36,36,0,0,0,4.49-18,27.37,27.37,0,0,0-2.11-10.94A22,22,0,0,0,138.16,184.37Z"/><path class="cls-6" d="M124.26,134.77q15.3,0,23,6.94a22.76,22.76,0,0,1,7.65,17.61,47,47,0,0,1-.28,5.13,40.29,40.29,0,0,1-.7,4.28l-22.32,1a17.54,17.54,0,0,0,.42-2.88c.09-1.17.14-2.31.14-3.44q0-4.48-2.66-6.73t-8.56-2.25q-7,0-10.25,3.16a11.17,11.17,0,0,0-3.23,8.35,8.45,8.45,0,0,0,1.55,5.26,11.94,11.94,0,0,0,5.26,3.51q3.72,1.47,10.17,3.3,8.7,2.52,13.76,6.38a22,22,0,0,1,7.15,8.78,27.37,27.37,0,0,1,2.11,10.94,36,36,0,0,1-4.49,18,30.25,30.25,0,0,1-13.75,12.35q-9.27,4.41-23.3,4.42Q90,238.9,82.58,232t-7.43-18.24a61.87,61.87,0,0,1,.28-6.53c.18-1.73.42-3.39.7-5l22.31-1q-.14,1.26-.42,3.78a38.72,38.72,0,0,0-.28,4.21c0,3.65,1.07,6.23,3.23,7.72s5.33,2.25,9.54,2.25A21.11,21.11,0,0,0,118.3,218a10.39,10.39,0,0,0,4.91-3.93,13.91,13.91,0,0,0,1.05-11.16,7.89,7.89,0,0,0-2.52-3.37,21.24,21.24,0,0,0-5-2.81,51,51,0,0,0-8.07-2.45A51.57,51.57,0,0,1,95.42,189a21.29,21.29,0,0,1-7.93-8.07,25.78,25.78,0,0,1-2.66-12.35,34.61,34.61,0,0,1,4.28-17.12,30.1,30.1,0,0,1,13-12.21q8.7-4.5,22.17-4.49m0-4c-9.58,0-17.66,1.66-24,4.93a34.22,34.22,0,0,0-14.65,13.83,38.83,38.83,0,0,0-4.78,19.06A29.7,29.7,0,0,0,84,182.85a25.16,25.16,0,0,0,9.39,9.59,55.38,55.38,0,0,0,14.3,5.7l.12,0a45.88,45.88,0,0,1,7.41,2.24,17.43,17.43,0,0,1,4,2.23,3.89,3.89,0,0,1,1.28,1.65,8.34,8.34,0,0,1,.46,2.89,8.5,8.5,0,0,1-1.1,4.68,6.29,6.29,0,0,1-3.06,2.41,17.21,17.21,0,0,1-6.3,1c-4.18,0-6.26-.83-7.26-1.53-.37-.26-1.51-1.05-1.51-4.44a35.21,35.21,0,0,1,.26-3.76c.18-1.69.32-3,.42-3.79a4,4,0,0,0-1.06-3.18,4,4,0,0,0-2.92-1.26h-.17l-22.32,1a4,4,0,0,0-3.76,3.3c-.3,1.68-.55,3.45-.74,5.25a64.28,64.28,0,0,0-.3,7c0,8.7,2.93,15.83,8.72,21.18s14.45,7.94,26,7.94c9.91,0,18.33-1.62,25-4.81a34.23,34.23,0,0,0,15.51-14,40.11,40.11,0,0,0,5-20A31.62,31.62,0,0,0,149,191.57a26.07,26.07,0,0,0-8.4-10.37,45.77,45.77,0,0,0-15.07-7c-4.17-1.18-7.47-2.25-9.82-3.18a8.25,8.25,0,0,1-3.55-2.2,4.73,4.73,0,0,1-.73-2.85,7.19,7.19,0,0,1,2-5.49c1.35-1.32,3.92-2,7.45-2,3.85,0,5.4.82,6,1.31.31.26,1.24,1.05,1.24,3.67,0,1,0,2.05-.12,3.13a14.75,14.75,0,0,1-.32,2.22,4,4,0,0,0,3.88,5h.18l22.31-1a4,4,0,0,0,3.72-3.09,41.79,41.79,0,0,0,.78-4.72,50.66,50.66,0,0,0,.31-5.59,26.72,26.72,0,0,0-9-20.57c-5.84-5.3-14.46-8-25.64-8Z"/><polygon class="cls-2" points="203.6 199.74 206.08 148.24 193.45 148.24 174.08 199.74 184.05 137.01 163.14 137.01 150.65 236.65 172.68 236.65 190.99 190 189.24 236.65 211.41 236.65 241.16 137.01 220.25 137.01 203.6 199.74"/><path class="cls-7" d="M241.17,137l-29.76,99.64H189.24L191,190l-18.31,46.65h-22L163.14,137h20.91l-10,62.73,19.37-51.5h12.63l-2.48,51.5L220.25,137h20.92m0-4H220.25a4,4,0,0,0-3.86,3l-7,26.29.67-13.84a4,4,0,0,0-4-4.19H193.45a4,4,0,0,0-3.74,2.59l-5.49,14.59L188,137.64a4,4,0,0,0-3.95-4.63H163.14a4,4,0,0,0-4,3.5l-12.49,99.64a4,4,0,0,0,4,4.5h22a4,4,0,0,0,3.72-2.54l9.71-24.73-.87,23.12a4,4,0,0,0,4,4.15h22.17a4,4,0,0,0,3.84-2.85L245,138.15a4,4,0,0,0-3.83-5.14Z"/><path class="cls-8" d="M61.53,91.83h-16A2,2,0,0,1,43.71,89l15-33a2,2,0,0,1,3.82.77l1,33A2,2,0,0,1,63,91.22,2,2,0,0,1,61.53,91.83Zm-12.89-4H59.47L58.8,65.5Z"/></g></g></svg>