<svg xmlns="http://www.w3.org/2000/svg" viewBox="0 0 256 256"><defs><style>.cls-1{fill:none;}.cls-2{fill:#93947a;}</style></defs><g id="Layer_2" data-name="Layer 2"><g id="swap_mats_copy" data-name="swap_mats copy"><rect id="safe_area" class="cls-1" width="256" height="256"/><path class="cls-2" d="M36.71,109.19h25.4L62.67,128H85l-5-99.64H52.84L5.41,128H28.14ZM60.56,56.85l1,33h-16Z"/><path class="cls-2" d="M116.56,93.2h8.7c3.93,0,6.68.65,8.28,2s2.38,3.42,2.38,6.32a25.24,25.24,0,0,1-.28,3.43c-.19,1.36-.37,2.74-.56,4.14l-2.53,19h22.88l2.24-18.1c.29-2.06.61-4.4,1-7a47.49,47.49,0,0,0,.56-6.32q0-7.71-4.84-11.22a19.19,19.19,0,0,0-7.81-3,32,32,0,0,0,8.72-3.88A29.38,29.38,0,0,0,165.67,67a33.85,33.85,0,0,0,3.65-15.79q0-10.8-7.37-16.84t-21.68-6H107.71L86.52,128h22.6ZM126,48.43h9.26q4.91,0,7.44,2.24a8.2,8.2,0,0,1,2.52,6.46,17.49,17.49,0,0,1-1.82,8.07,14.22,14.22,0,0,1-5.19,5.68A15.1,15.1,0,0,1,130,73h-9.26Z"/><polygon class="cls-2" points="182.65 82.67 193.32 90.53 209.32 72.57 218.58 90.53 230.65 82.67 221.25 66.25 240.61 66.39 243.56 52.5 223.77 52.64 239.77 36.22 229.25 28.36 213.11 46.32 203.84 28.36 191.78 36.22 201.18 52.64 181.81 52.5 178.87 66.39 198.79 66.25 182.65 82.67"/><polygon class="cls-2" points="32.48 134.2 17.89 159.04 13.4 179.39 36.97 179.39 41.75 156.94 32.48 156.94 45.26 134.2 32.48 134.2"/><polygon class="cls-2" points="77.81 134.2 65.04 134.2 50.45 159.04 45.96 179.39 69.53 179.39 74.31 156.94 65.04 156.94 77.81 134.2"/><path class="cls-2" d="M138.16,184.37q-5.06-3.85-13.76-6.38-6.45-1.83-10.17-3.3a11.94,11.94,0,0,1-5.26-3.51,8.45,8.45,0,0,1-1.55-5.26,11.17,11.17,0,0,1,3.23-8.35q3.22-3.16,10.25-3.16,5.89,0,8.56,2.25t2.66,6.73c0,1.13-.05,2.27-.14,3.44a17.54,17.54,0,0,1-.42,2.88l22.32-1a40.29,40.29,0,0,0,.7-4.28,47,47,0,0,0,.28-5.13,22.76,22.76,0,0,0-7.65-17.61q-7.65-6.94-23-6.94-13.47,0-22.17,4.49a30.1,30.1,0,0,0-13,12.21,34.61,34.61,0,0,0-4.28,17.12,25.78,25.78,0,0,0,2.66,12.35A21.29,21.29,0,0,0,95.42,189a51.57,51.57,0,0,0,13.27,5.26,51,51,0,0,1,8.07,2.45,21.24,21.24,0,0,1,5,2.81,7.89,7.89,0,0,1,2.52,3.37,13.91,13.91,0,0,1-1.05,11.16A10.39,10.39,0,0,1,118.3,218a21.11,21.11,0,0,1-7.79,1.26q-6.32,0-9.54-2.25c-2.16-1.49-3.23-4.07-3.23-7.72a38.72,38.72,0,0,1,.28-4.21q.28-2.52.42-3.78l-22.31,1c-.28,1.59-.52,3.25-.7,5a61.87,61.87,0,0,0-.28,6.53q0,11.35,7.43,18.24t23.3,6.88q14,0,23.3-4.42a30.25,30.25,0,0,0,13.75-12.35,36,36,0,0,0,4.49-18,27.37,27.37,0,0,0-2.11-10.94A22,22,0,0,0,138.16,184.37Z"/><polygon class="cls-2" points="203.6 199.74 206.08 148.24 193.45 148.24 174.08 199.74 184.05 137.01 163.14 137.01 150.65 236.65 172.68 236.65 190.99 190 189.24 236.65 211.41 236.65 241.16 137.01 220.25 137.01 203.6 199.74"/></g></g></svg>