<svg xmlns="http://www.w3.org/2000/svg" xmlns:xlink="http://www.w3.org/1999/xlink" viewBox="0 0 256 360"><defs><style>.a7cdffb1-1a2c-420c-898b-baad86ff1848{fill:none;}.a5d96630-a31a-4cd1-bce8-9a83f6b6447f{stroke-miterlimit:10;stroke-width:5px;fill:url(#a1449bee-b6ff-4f79-8ba7-33530c0685f7);stroke:url(#f86c6c4b-cc94-49b9-991b-77880c060cb1);}.a7fdbe27-f0a8-4be0-9d69-787d64cd630d{fill:url(#f520516f-949a-4311-bdff-f2cf13013d1d);}</style><linearGradient id="a1449bee-b6ff-4f79-8ba7-33530c0685f7" x1="66.30771" y1="9.32815" x2="166.00002" y2="203.17431" gradientUnits="userSpaceOnUse"><stop offset="0.14309" stop-color="#aabbed"/><stop offset="0.71945" stop-color="#6987e2"/></linearGradient><linearGradient id="f86c6c4b-cc94-49b9-991b-77880c060cb1" x1="16.60818" y1="128" x2="238.06971" y2="128" gradientUnits="userSpaceOnUse"><stop offset="0"/><stop offset="1"/></linearGradient><linearGradient id="f520516f-949a-4311-bdff-f2cf13013d1d" x1="34.81676" y1="124.7496" x2="229.57104" y2="124.7496" gradientTransform="matrix(0.96117, -0.11898, 0.12285, 0.99242, -11.12193, 16.53164)" gradientUnits="userSpaceOnUse"><stop offset="0.14309" stop-color="#5172d9"/><stop offset="0.71945" stop-color="#1236c9"/></linearGradient></defs><g id="ff122938-9537-421e-a27c-0b54730ab9f9" data-name="Layer 2"><g id="b7ea2c50-0e48-40cc-8434-f9fc91aa5a49" data-name="Globe Deformer"><g id="a5f561ce-1e43-4a95-bb0f-030387884fbf" data-name="safe_area"><rect class="a7cdffb1-1a2c-420c-898b-baad86ff1848" width="256" height="360"/></g><circle class="a5d96630-a31a-4cd1-bce8-9a83f6b6447f" cx="127.33895" cy="128" r="108.23077"/><path class="a7fdbe27-f0a8-4be0-9d69-787d64cd630d" d="M224.8332,113.00273a124.94592,124.94592,0,0,0-13.20406-36.85617h0c-7.453.96964-5.02093,14.598-15.11549,9.27543-3.74763-1.97125-6.30168-5.195-10.76608-5.71893-3.89975-.45747-7.65853.98567-11.31753,2.09208-4.159,1.25763-9.15737,2.21016-11.98332,5.81787-2.734,3.47409-3.86977,7.82219-6.8012,11.33953-5.66867,6.81319-7.563,13.71857-2.35747,21.71483,5.00692,7.68707,13.91171,11.09311,22.85411,9.39377,8.78391-1.68441,17.35037-7.9443,18.68321,4.9175.46881,4.54906,1.81067,7.57972,3.73076,11.62474,1.77723,3.72893,2.15555,7.50881,2.94972,11.48636,1.47657,7.433,4.13135,21.02519,8.45572,21.83361,4.91551.91893,11.73427-18.42251,11.73427-18.42251C229.22386,140.726,224.8332,113.00273,224.8332,113.00273Zm-78.37711,38.983c-3.76162-10.08365-18.352-11.80333-26.68482-16.493-4.7901-2.69781-9.31557-7.2195-15.12961-6.91348-2.68005.139-4.8336.98855-7.55118.6339-2.49185-.32147-4.54722-1.38335-7.07833-.72684-4.72892,1.22475-7.12772,6.72114-12.37818,6.66593-4.98114-.05094-10.7368-5.13961-12.42748-9.65494-2.171-5.8051,2.33534-8.33271,7.355-9.49472,2.09494-.485,4.44767-1.0207,6.58224-.49986,2.80764.66318,4.4,3.1269,6.97429,4.15274,4.82441,1.90848,5.251-2.14969,4.06378-6.06449-1.77737-5.86322-3.28753-8.15847,1.56189-12.94278,3.36352-3.30286,6.28574-5.7519,5.05906-10.78538-.72439-2.95665-2.54106-4.1092-1.37349-7.28595.88429-2.41772,3.83031-4.865,5.74767-6.47979,4.94944-4.16674,22.6578-6.09563,14.22305-14.99905-2.4784-2.61259-7.02978-7.2674-10.83235-7.51125-4.75265-.30017-6.17506,5.12236-9.13015,7.80112-3.05216,2.7707-9.23219,6.253-13.03183,3.02357-5.112-4.34567,2.17984-6.88432,3.41428-10.51126S80.75473,44.4856,77.60733,43.211C62.32044,49.33907,48.054,66.7165,48.054,66.7165,40.44233,77.15928,34.2486,88.74739,32.89474,97.21861c-.24395,1.52647,3.23983,9.79636,3.99885,11.3948,4.35109,9.13158,11.66287,15.70592,16.92432,24.3064,5.54622,9.11056,16.9,4.98781,23.10647,12.80375,5.50784,6.934,1.793,17.03585,6.19257,24.46432,3.19493,5.39157,9.21953,5.91038,13.78523,9.57619,4.6591,3.69656,5.28389,9.46741,6.59358,14.8667a141.9056,141.9056,0,0,0,5.82608,18.685c.83078,2.102,1.70167,4.90887,3.41431,6.51619,1.17421,1.10515,4.81193,1.73139,3.44585,2.31418,2.0186.0792,5.77176,1.48563,7.25312-.07047,1.95344-2.04705.69541-7.448.76553-9.96712a39.97588,39.97588,0,0,1,7.32872-21.28658c4.25471-6.04581,10.55187-10.56274,13.95029-17.24062a27.6354,27.6354,0,0,0,.97643-21.59558M84.3402,42.51859c2.46679,1.87125,4.85225,4.15216,8.16215,3.95868,3.13284-.17627,5.85592-2.21517,8.829-.4442,3.2961,1.94253,5.82781,4.60493,9.91134,4.8328a7.75729,7.75729,0,0,0,8.23266-6.59466c.464-3.87005-2.04322-7.70606-2.63054-11.46007-.06477-.52321-.06921-2.88262-.48018-3.23134-.306-.263-2.51263.34865-2.85517.40046q-3.76206.57854-7.46888,1.45111A97.15675,97.15675,0,0,0,80.32407,41.502a14.03456,14.03456,0,0,0,4.01613,1.0166m83.07444,16.127c3.943-.48812,7.72863-2.74317,5.89322-7.13246-1.53991-3.67839-3.87234-7.58776-8.04853-4.98348-2.65746,1.65468-6.24,5.47358-6.16168,8.81108.08694,3.78774,5.68829,3.63027,8.317,3.30486m-.6859,20.28562c4.3241,1.90459,10.15683.03548,12.7695-3.77148,2.04079-2.97928,2.86155-7.81491,7.13025-8.33864a7.21838,7.21838,0,0,1,5.27792,1.41983c1.99009,1.60118,1.85327,3.35284,2.51146,5.58431,1.474,5.01227,6.38025-.49365,7.57-2.653.769-1.4068,1.79026-3.47949,1.15956-5.10793-.58443-1.52133-2.63049-2.96515-3.62615-4.30394-2.903-3.87164-5.46769-8.47623-9.46052-11.39966-3.84266-2.8151-8.0272-1.9163-10.87545,1.854-2.33122,3.10926-5.166,5.69321-6.57746,9.29975a7.39459,7.39459,0,0,1-4.84884,4.78894c-1.3979.51623-3.02652.84477-4.11481,1.95733-3.03577,3.05544-.33764,9.15726,3.08451,10.67049"/></g></g></svg>