<svg xmlns="http://www.w3.org/2000/svg" viewBox="0 0 256 256"><defs><style>.cls-1,.cls-5,.cls-6,.cls-7{fill:none;}.cls-2,.cls-3,.cls-8,.cls-9{fill:#c5d4f8;}.cls-2,.cls-5,.cls-6,.cls-8,.cls-9{stroke:#000;}.cls-2,.cls-4,.cls-5,.cls-6,.cls-7,.cls-8,.cls-9{stroke-miterlimit:10;}.cls-2{stroke-width:6.37px;}.cls-4{stroke:#c5d4f8;stroke-width:6.58px;}.cls-5{stroke-width:4.15px;}.cls-6{stroke-width:5.93px;}.cls-7{stroke:#020202;stroke-width:3.06px;}.cls-8{stroke-width:6.37px;}.cls-9{stroke-width:5.91px;}</style></defs><g id="Layer_2" data-name="Layer 2"><g id="camera_result"><rect id="safe_area" class="cls-1" width="256" height="256"/><g id="icon"><line class="cls-2" x1="107.41" y1="59.92" x2="107.41" y2="122.32"/><rect class="cls-3" x="98.03" y="56.73" width="18.76" height="68.78"/><path d="M113.6,59.92v62.4H101.22V59.92H113.6M120,53.55H94.84V128.7H120V53.55Z"/><line class="cls-2" x1="30" y1="62.34" x2="224.38" y2="62.34"/><line class="cls-4" x1="30" y1="56.21" x2="224.38" y2="56.21"/><path class="cls-2" d="M213.18,114.44l-34.47,19.09a.91.91,0,0,1-1.35-.8V112.8a10.27,10.27,0,0,0-10.27-10.26H52A10.27,10.27,0,0,0,41.75,112.8v80.92A10.27,10.27,0,0,0,52,204H167.09a10.27,10.27,0,0,0,10.27-10.27v-24.5a.91.91,0,0,1,1.35-.8l34.47,19.09a5.34,5.34,0,0,0,7.71-4.79V119.23A5.35,5.35,0,0,0,213.18,114.44Z"/><path class="cls-2" d="M82,59.92c0-13.43,11.36-24.31,25.37-24.31s25.37,10.88,25.37,24.31"/><circle cx="109.55" cy="153.26" r="14.77"/><line class="cls-5" x1="67.13" y1="153.26" x2="82.15" y2="153.26"/><line class="cls-5" x1="136.96" y1="153.26" x2="151.97" y2="153.26"/><line class="cls-6" x1="109.55" y1="110.84" x2="109.55" y2="125.86"/><line class="cls-5" x1="109.55" y1="180.67" x2="109.55" y2="195.68"/><circle class="cls-7" cx="109.55" cy="153.26" r="20.9"/><line class="cls-8" x1="101.22" y1="51.43" x2="101.22" y2="60.99"/><line class="cls-8" x1="154.23" y1="51.43" x2="154.23" y2="60.99"/><line class="cls-8" x1="202.44" y1="51.43" x2="202.44" y2="60.99"/><line class="cls-9" x1="46.62" y1="51.77" x2="46.62" y2="60.64"/><line class="cls-2" x1="30" y1="52.5" x2="224.38" y2="52.5"/></g></g></g></svg>