<svg xmlns="http://www.w3.org/2000/svg" viewBox="0 0 256 256"><defs><style>.cls-1,.cls-3{fill:none;}.cls-2{fill:#e0e0e0;}.cls-2,.cls-3,.cls-4{stroke:#000;stroke-miterlimit:10;}.cls-2,.cls-3{stroke-width:2.23px;}.cls-4{fill:#0af;stroke-width:3.62px;}</style></defs><g id="Layer_2" data-name="Layer 2"><g id="matrix_preserve" data-name="matrix preserve"><rect id="safe_area" class="cls-1" width="256" height="256"/><g id="matrix_preserve-2" data-name="matrix_preserve"><g id="Layer_27_copy_4" data-name="Layer 27 copy 4"><polygon class="cls-2" points="204.35 57.34 178.65 71.8 178.65 102.99 204.35 117.46 230.05 102.99 230.05 71.8 204.35 57.34"/><polyline class="cls-3" points="230.05 71.8 204.35 86.27 204.35 117.46"/><line class="cls-3" x1="178.65" y1="71.8" x2="204.35" y2="86.27"/><polygon class="cls-2" points="126.51 17.77 100.81 32.24 100.81 63.42 126.51 77.89 152.21 63.42 152.21 32.24 126.51 17.77"/><polyline class="cls-3" points="152.21 32.24 126.51 46.71 126.51 77.89"/><line class="cls-3" x1="100.81" y1="32.24" x2="126.51" y2="46.71"/><polygon class="cls-2" points="204.35 139.18 178.65 153.64 178.65 184.83 204.35 199.3 230.05 184.83 230.05 153.64 204.35 139.18"/><polyline class="cls-3" points="230.05 153.64 204.35 168.11 204.35 199.3"/><line class="cls-3" x1="178.65" y1="153.64" x2="204.35" y2="168.11"/><polygon class="cls-2" points="51.65 57.34 25.95 71.8 25.95 102.99 51.65 117.46 77.35 102.99 77.35 71.8 51.65 57.34"/><polyline class="cls-3" points="77.35 71.8 51.65 86.27 51.65 117.46"/><line class="cls-3" x1="25.95" y1="71.8" x2="51.65" y2="86.27"/><polygon class="cls-2" points="51.65 139.18 25.95 153.64 25.95 184.83 51.65 199.3 77.35 184.83 77.35 153.64 51.65 139.18"/><polyline class="cls-3" points="77.35 153.64 51.65 168.11 51.65 199.3"/><line class="cls-3" x1="25.95" y1="153.64" x2="51.65" y2="168.11"/><polygon class="cls-2" points="126.51 178.11 100.81 192.58 100.81 223.76 126.51 238.23 152.21 223.76 152.21 192.58 126.51 178.11"/><polyline class="cls-3" points="152.21 192.58 126.51 207.05 126.51 238.23"/><line class="cls-3" x1="100.81" y1="192.58" x2="126.51" y2="207.05"/></g><g id="Layer_27_copy" data-name="Layer 27 copy"><polygon class="cls-4" points="126.51 76.22 84.72 99.75 84.72 150.46 126.51 173.99 168.31 150.46 168.31 99.75 126.51 76.22"/><polyline class="cls-3" points="168.31 99.75 126.51 123.28 126.51 173.99"/><line class="cls-3" x1="84.72" y1="99.75" x2="126.51" y2="123.28"/></g></g></g></g></svg>