<svg xmlns="http://www.w3.org/2000/svg" viewBox="0 0 256 256"><defs><style>.cls-1{fill:#dd9a05;}.cls-2{fill:#fff;}.cls-3{fill:none;}</style></defs><g id="Layer_2" data-name="Layer 2"><g id="render_result"><g id="Layer_34" data-name="Layer 34"><rect x="23.15" y="44.97" width="208.59" height="166.2" rx="15.27"/><path d="M23.15,93.13V60.24A15.27,15.27,0,0,1,38.42,45H216.47a15.27,15.27,0,0,1,15.27,15.27V93.13Z"/><polygon class="cls-1" points="101.06 93.14 76.22 45 45.81 45 70.65 93.14 101.06 93.14"/><polyline class="cls-1" points="129.09 93.14 159.5 93.14 134.67 45 104.26 45"/><polyline class="cls-1" points="188.08 93.14 218.49 93.14 193.65 45 163.24 45"/></g><path class="cls-2" d="M47.9,179.34V168.45H59.12v10.89Z"/><path class="cls-2" d="M91,172.24l-9.15-38.13v45.23H73.55V120.76H85.1L96,165.23h-3.3l10.89-44.47h11.55v58.58H106.8V130.25l.91.08L97.64,172.24Z"/><path class="cls-2" d="M124.21,179.34V120.76h18.15A24.06,24.06,0,0,1,153,123a16.65,16.65,0,0,1,7.1,6.31,20,20,0,0,1,0,19.39A16.44,16.44,0,0,1,153,155a24.62,24.62,0,0,1-10.68,2.18h-9.49v22.2ZM132.87,149h8.58c4.18,0,7.26-.86,9.24-2.56s3-4.18,3-7.43-1-5.8-3-7.51-5.06-2.55-9.24-2.55h-8.58Z"/><path class="cls-2" d="M192.19,179.34V167H164.3v-7.51l27-38.69h9.57V159h7v8h-7v12.38ZM172.8,159h19.39V132.31Z"/></g><g id="plane_result"><rect id="safe_area" class="cls-3" width="256" height="256"/></g></g></svg>