<svg xmlns="http://www.w3.org/2000/svg" viewBox="0 0 256 256"><defs><style>.cls-1{fill:none;}.cls-2{fill:#0af;stroke-width:3.62px;}.cls-2,.cls-3,.cls-4,.cls-5,.cls-6{stroke:#000;stroke-miterlimit:10;}.cls-3{fill:#dd9a05;}.cls-3,.cls-4,.cls-5,.cls-6{stroke-width:3px;}.cls-4{fill:#dbb76e;}.cls-5{fill:#e0e0e0;}.cls-6{fill:#c1beba;}.cls-7{fill:#fff;}</style></defs><g id="Layer_2" data-name="Layer 2"><g id="obj_col_to_ver_col"><rect id="safe_area" class="cls-1" width="256" height="256"/><g id="icon"><polygon class="cls-2" points="30.86 127.43 79.83 32.61 128.79 127.43 30.86 127.43"/><circle class="cls-3" cx="221.69" cy="127.43" r="17.45"/><circle class="cls-3" cx="221.69" cy="176.28" r="17.45"/><circle class="cls-3" cx="221.69" cy="223.39" r="17.45"/><circle class="cls-4" cx="174.59" cy="127.43" r="17.45"/><circle class="cls-4" cx="174.59" cy="176.28" r="17.45"/><circle class="cls-4" cx="174.59" cy="223.39" r="17.45"/><circle class="cls-5" cx="128.79" cy="127.43" r="17.45"/><circle class="cls-6" cx="128.79" cy="176.28" r="17.45"/><circle class="cls-6" cx="128.79" cy="223.39" r="17.45"/><circle class="cls-5" cx="30.86" cy="127.43" r="17.45"/><circle class="cls-5" cx="79.82" cy="32.61" r="17.45"/><path class="cls-7" d="M83.57,207c-12.75-.24-23.83-3.67-33-10.18-10.82-7.72-18.36-22.4-21.22-41.36L29.15,154l11.42-1.82.23,1.49c5.23,34.7,25.31,40.47,42.77,41.16V181.57l28.23,19L83.57,219Z"/><path d="M39.32,153.91c5.36,35.59,25.87,42,45.75,42.47v-12l24,16.17-24,15.71V205.54c-14,0-25-3.82-33.61-9.92-11.28-8-18-23.07-20.6-40.36l8.46-1.35m2.51-3.44-3,.48-8.46,1.35-2.93.47.44,2.94c2.92,19.36,10.67,34.4,21.83,42.35,9,6.44,19.91,9.94,32.35,10.42v13.33l4.64-3,24-15.71,3.79-2.48-3.75-2.52-24-16.17-4.67-3.15v14.52c-17.34-1-34.89-7.32-39.79-39.81l-.45-3Z"/></g></g></g></svg>