<svg xmlns="http://www.w3.org/2000/svg" xmlns:xlink="http://www.w3.org/1999/xlink" viewBox="0 0 256 256"><defs><style>.cls-1{fill:none;}.cls-2{fill:#0af;}.cls-3{fill:url(#radial-gradient);}.cls-4{fill:url(#radial-gradient-2);}.cls-5,.cls-9{fill:#fff;}.cls-6{fill:url(#radial-gradient-3);}.cls-7{fill:#fcc12d;}.cls-8{fill:url(#radial-gradient-4);}.cls-9{stroke:#000;stroke-miterlimit:10;stroke-width:4px;}</style><radialGradient id="radial-gradient" cx="158.75" cy="143.57" r="89.92" gradientUnits="userSpaceOnUse"><stop offset="0.17" stop-color="#fcdf9a"/><stop offset="0.92" stop-color="#fcc12d"/></radialGradient><radialGradient id="radial-gradient-2" cx="203.46" cy="145.71" r="40.79" gradientUnits="userSpaceOnUse"><stop offset="0.17" stop-color="#fcdf9a"/><stop offset="0.92" stop-color="#ffae1a"/></radialGradient><radialGradient id="radial-gradient-3" cx="100.28" cy="58.94" r="61.46" gradientUnits="userSpaceOnUse"><stop offset="0.17" stop-color="#8ad8ff"/><stop offset="0.92" stop-color="#0af"/></radialGradient><radialGradient id="radial-gradient-4" cx="207.62" cy="137.37" r="31.68" xlink:href="#radial-gradient-2"/></defs><g id="Layer_2" data-name="Layer 2"><g id="swap_mats"><rect id="safe_area" class="cls-1" width="256" height="256"/><g id="Layer_35" data-name="Layer 35"><circle cx="128.79" cy="128" r="53.21"/><path class="cls-2" d="M135.67,185.35h-9.79c-19.4,0-35.06-6.19-46.53-18.39a67.43,67.43,0,0,1-13-20.75,65.13,65.13,0,1,1,14.75,1,50.36,50.36,0,0,0,7.71,10.91c8.93,9.5,21.41,14.31,37.1,14.31h9.79V146.81l45.81,30.83-45.81,30Z"/><path d="M78.13,19.75a62.42,62.42,0,1,1,0,124.84h0c-.45,0-.91,0-1.36,0a55.26,55.26,0,0,0,10,15.43c9.46,10.06,22.61,15.16,39.07,15.16h12.49V151.88l38.23,25.73-38.23,25V182.65H125.88c-18.63,0-33.62-5.9-44.56-17.54a65.25,65.25,0,0,1-13-21.3A62.42,62.42,0,0,1,78.13,19.75h0m0-5.4A67.82,67.82,0,0,0,64.39,148.59a69.29,69.29,0,0,0,13,20.22c12,12.77,28.31,19.24,48.49,19.24H133v24.53l8.36-5.46,38.22-25,6.81-4.46-6.75-4.54L141.39,147.4,133,141.74v28h-7.09c-14.91,0-26.73-4.53-35.13-13.46a44.46,44.46,0,0,1-5.18-6.7A67.82,67.82,0,0,0,78.13,14.35Z"/><path class="cls-3" d="M177.87,238.84a65.12,65.12,0,0,1-3-130.18,50,50,0,0,0-7.7-10.91c-8.93-9.49-21.41-14.3-37.1-14.3h-9.79v25.62L74.52,78.24l45.81-29.95V70.53h9.79c19.4,0,35.06,6.19,46.53,18.4a67.31,67.31,0,0,1,13,20.74,65.13,65.13,0,0,1-11.81,129.17Z"/><path d="M117.63,53.29V73.23h12.49c18.63,0,33.62,5.91,44.56,17.55a65.15,65.15,0,0,1,13,21.3,62.42,62.42,0,0,1-9.86,124.06h0a62.42,62.42,0,0,1,0-124.84h0l1.36,0a55.41,55.41,0,0,0-10-15.43c-9.46-10.05-22.61-15.15-39.07-15.15H117.63V104L79.4,78.28l38.23-25m5.4-10-8.36,5.47-38.22,25-6.81,4.45,6.75,4.55,38.22,25.72,8.42,5.67v-28h7.09c14.91,0,26.73,4.52,35.13,13.45a44.46,44.46,0,0,1,5.18,6.7,67.82,67.82,0,1,0,21.18,1,69,69,0,0,0-13-20.22c-12-12.77-28.31-19.24-48.49-19.24H123V43.3Z"/><rect class="cls-4" x="115.45" y="111.41" width="124.84" height="124.84" rx="62.42"/><path class="cls-5" d="M136.37,184.65H125.88c-19.2,0-34.69-6.11-46-18.17A67.56,67.56,0,0,1,66.4,144.53l-1.16-3,12.88,1.14.48,1.07a53.29,53.29,0,0,0,9.67,14.87c9.07,9.64,21.72,14.53,37.61,14.53h10.49v-25l43.84,29.5L136.37,206.3Z"/><path d="M68.27,143.81l8.5.74a55.26,55.26,0,0,0,10,15.43c9.46,10.06,22.61,15.16,39.07,15.16h12.49V151.88l38.23,25.73-38.23,25V182.65H125.88c-18.63,0-33.62-5.9-44.56-17.54a65.25,65.25,0,0,1-13-21.3m-6.06-4.55,2.33,6a69,69,0,0,0,13.87,22.6c11.72,12.47,27.69,18.8,47.47,18.8h8.49V210l6.19-4,38.23-25,5-3.3-5-3.37-38.22-25.73-6.24-4.19v26.77h-8.49c-15.31,0-27.48-4.68-36.15-13.9a51.28,51.28,0,0,1-9.31-14.32l-1-2.14-2.34-.21-8.5-.75-6.41-.56Z"/><rect class="cls-6" x="15.71" y="19.75" width="124.84" height="124.84" rx="62.42"/><path class="cls-5" d="M117.63,104,79.4,78.28l38.23-25"/><path class="cls-7" d="M117.63,73.24h12.49a77.19,77.19,0,0,1,12.4,1l0,7.64a68.37,68.37,0,0,0-12.42-1.08H117.63Z"/><rect x="117.61" y="70.25" width="3.96" height="10.88"/><path class="cls-5" d="M177.88,113.22l-.48-1.07a53.27,53.27,0,0,0-9.67-14.88c-9.07-9.64-21.72-14.52-37.61-14.52H119.63v25L75.79,78.25l43.84-28.66V71.23h10.49c19.2,0,34.69,6.12,46,18.18a67.11,67.11,0,0,1,13.46,22l1.16,3Z"/><path d="M117.63,53.29V73.23h12.49c18.63,0,33.62,5.91,44.56,17.55a65.15,65.15,0,0,1,13,21.3l-8.5-.75a55.41,55.41,0,0,0-10-15.43c-9.46-10.05-22.61-15.15-39.07-15.15H117.63V104L79.4,78.28l38.23-25m4-7.4-6.19,4-38.23,25-5,3.3,5,3.37,38.22,25.72,6.24,4.2V84.75h8.49c15.31,0,27.48,4.67,36.15,13.89A51.42,51.42,0,0,1,175.58,113l1,2.15,2.34.2,8.5.75,6.41.57-2.33-6A69,69,0,0,0,177.59,88c-11.72-12.48-27.69-18.81-47.47-18.81h-8.49V45.89Z"/><polygon points="173.53 102.28 185.72 102.59 191.05 114.28 172.95 114.01 173.53 102.28"/><path class="cls-8" d="M129.54,134.32a62.31,62.31,0,0,1,48.33-22.91h0a62.42,62.42,0,0,1,62.42,62.42h0a62.1,62.1,0,0,1-8.85,32Z"/><path class="cls-9" d="M66.85,145.69c.23,0,12.55,1.19,12.55,1.19"/><path d="M71.31,153.62l12.19-.11-4.1-5.89c-.11-.41-12.92-6.41-10.17,1.81A18.36,18.36,0,0,0,71.31,153.62Z"/></g></g></g></svg>