<svg xmlns="http://www.w3.org/2000/svg" xmlns:xlink="http://www.w3.org/1999/xlink" viewBox="0 0 256 256"><defs><style>.cls-1,.cls-15{fill:none;}.cls-2{fill:#f7f7f7;}.cls-3{fill:url(#radial-gradient);}.cls-4,.cls-5,.cls-6,.cls-8,.cls-9{fill:#ef9506;}.cls-15,.cls-5,.cls-6,.cls-8,.cls-9{stroke-linecap:round;}.cls-10,.cls-11,.cls-12,.cls-15,.cls-5,.cls-6,.cls-8,.cls-9{stroke-miterlimit:10;}.cls-5,.cls-6,.cls-8,.cls-9{stroke-width:10.29px;}.cls-5{stroke:url(#New_Gradient_Swatch);}.cls-6{stroke:url(#New_Gradient_Swatch-2);}.cls-7{fill:url(#radial-gradient-2);}.cls-8{stroke:url(#New_Gradient_Swatch-3);}.cls-9{stroke:url(#New_Gradient_Swatch-4);}.cls-10{stroke-width:4.13px;fill:url(#radial-gradient-3);stroke:url(#New_Gradient_Swatch-5);}.cls-11{fill:#e8e8e8;stroke-width:3.08px;stroke:url(#New_Gradient_Swatch-6);}.cls-12{stroke-width:2.95px;fill:url(#radial-gradient-4);stroke:url(#New_Gradient_Swatch-7);}.cls-13{fill:url(#New_Gradient_Swatch-8);}.cls-14{fill:#fff;}.cls-15{stroke:#4c4c4c;stroke-width:2.14px;}</style><radialGradient id="radial-gradient" cx="200.11" cy="85.39" r="23.89" gradientTransform="translate(-2.9 1.35) scale(1.02 0.99)" gradientUnits="userSpaceOnUse"><stop offset="0.17" stop-color="#fcdf9a"/><stop offset="0.92" stop-color="#ffae1a"/></radialGradient><linearGradient id="New_Gradient_Swatch" x1="-5023.81" y1="-1238.06" x2="-4987.59" y2="-1238.06" gradientTransform="translate(-1053.98 5106.75) rotate(90)" gradientUnits="userSpaceOnUse"><stop offset="0"/><stop offset="1"/></linearGradient><linearGradient id="New_Gradient_Swatch-2" x1="165.61" y1="101.05" x2="202.56" y2="101.05" gradientTransform="translate(0 0)" xlink:href="#New_Gradient_Swatch"/><radialGradient id="radial-gradient-2" cx="88.18" cy="85.39" r="23.89" xlink:href="#radial-gradient"/><linearGradient id="New_Gradient_Swatch-3" x1="-5023.81" y1="-1124.24" x2="-4987.59" y2="-1124.24" xlink:href="#New_Gradient_Swatch"/><linearGradient id="New_Gradient_Swatch-4" x1="51.79" y1="101.05" x2="88.74" y2="101.05" gradientTransform="translate(0 0)" xlink:href="#New_Gradient_Swatch"/><radialGradient id="radial-gradient-3" cx="177.18" cy="35.84" r="28.22" gradientTransform="translate(-2.9 4.12) scale(1.02 0.99)" gradientUnits="userSpaceOnUse"><stop offset="0" stop-color="#fcdf9a"/><stop offset="1" stop-color="#ffae1a"/></radialGradient><linearGradient id="New_Gradient_Swatch-5" x1="20.53" y1="60.05" x2="235.27" y2="60.05" gradientTransform="matrix(1, 0, 0, 1, 0, 0)" xlink:href="#New_Gradient_Swatch"/><linearGradient id="New_Gradient_Swatch-6" x1="33.03" y1="185.34" x2="222.78" y2="185.34" gradientTransform="matrix(1, 0, 0, 1, 0, 0)" xlink:href="#New_Gradient_Swatch"/><radialGradient id="radial-gradient-4" cx="146.63" cy="-294.99" r="27.39" gradientTransform="translate(-2.9 357) scale(1.02 0.84)" xlink:href="#radial-gradient"/><linearGradient id="New_Gradient_Swatch-7" x1="85.15" y1="124.75" x2="173.82" y2="124.75" gradientTransform="matrix(1, 0, 0, 1, 0, 0)" xlink:href="#New_Gradient_Swatch"/><linearGradient id="New_Gradient_Swatch-8" x1="12.44" y1="165.68" x2="243.56" y2="165.68" gradientTransform="matrix(1, 0, 0, 1, 0, 0)" xlink:href="#New_Gradient_Swatch"/></defs><g id="Layer_2" data-name="Layer 2"><g id="preserve_head"><rect id="safearea" class="cls-1" width="256" height="256"/><g id="text"><path class="cls-2" d="M75.74,161.21q-9.66-.33-19.32-.78l0-12.82H44.63v32.31c3.92.9,7.83,1.78,11.76,2.63q0-6.23,0-12.47,9.63.79,19.3,1.37,0,7.32,0,14.64c3.62.34,7.24.66,10.86.93q.06-19.71.1-39.41H75.77Z"/><path class="cls-2" d="M211.8,159.17a13.23,13.23,0,0,0-2.13-4.36,14.21,14.21,0,0,0-4-3.71,21.57,21.57,0,0,0-6.44-2.51,38.71,38.71,0,0,0-9.15-1H168.11l.09,36.72c-5-11.91-10.08-24.21-15.1-36.72H137.22c-4.54,12.16-9.09,24.38-13.65,36.52v-5.78q-11.47-.07-22.95-.51v-5.53q11.07.34,22.15.42c0-3.33,0-6.65,0-10q-11.07,0-22.14-.25c0-1.68,0-3.36,0-5q11.3.14,22.59.16v-10H89l-.1,39.59q16.45,1.19,33,1.37h1.67c3.45,0,6.89,0,10.34,0l2.37-6.64q8.86-.11,17.71-.45c.81,2.15,1.62,4.28,2.43,6.41q5.9-.3,11.78-.73h0l.41,0,.76,0h0q10.42-.78,20.82-1.94a36.78,36.78,0,0,0,9.35-2.21A23.89,23.89,0,0,0,206,179.4a17.5,17.5,0,0,0,3.89-4.43,16,16,0,0,0,2-4.76,22.23,22.23,0,0,0,.52-4.84V164A18.7,18.7,0,0,0,211.8,159.17Zm-71.9,12.51,5.06-14.1q2.61,7,5.23,13.92Q145,171.62,139.9,171.68Zm48.85,3.65q-4.38.36-8.76.66,0-9.13-.05-18.27c2.93-.07,5.85-.14,8.77-.23q11.43-.3,11.44,8v.29C200.16,171.46,196.37,174.69,188.75,175.33Z"/><path class="cls-2" d="M99.73,217.32q11.43.38,22.85.45l.09-10.62q-11.3-.09-22.57-.45l.18-5.46q11.44.38,22.89.45c0-3,0-6.07.07-9.1-12.89-.17-24.36-.82-34.27-1.69q-1,21.42-2.08,42.83,18.19.84,36.4,1l.07-10.91q-11.91-1-23.77-2.33C99.64,220.06,99.68,218.69,99.73,217.32Z"/><path class="cls-2" d="M166.05,209.7c-2.89-1.94-7.55-2.9-14-3l-6.15,0a18.52,18.52,0,0,1-4.78-.48,4.28,4.28,0,0,1-2.19-1.12,2.71,2.71,0,0,1-.5-1.64v0a2.82,2.82,0,0,1,.4-1.62,3.82,3.82,0,0,1,2.12-1.14,19,19,0,0,1,4.91-.58h.46c5.18-.1,8,1.35,8.33,4.44q7.06-.21,14.14-.52l0-.47c-.3-6.11-3.51-10-9.58-11.86-8.23.58-17.46,1-27.69,1a13.26,13.26,0,0,0-1.25.6,10.88,10.88,0,0,0-5.27,6.54,15.92,15.92,0,0,0-.52,4.13c0,.18,0,.35,0,.53-.06,8.36,5.56,12.83,16.89,13.08q3.21.08,6.42.12a23.06,23.06,0,0,1,5.34.55,4.4,4.4,0,0,1,2.36,1.23,3.55,3.55,0,0,1,.55,2v.06a3.66,3.66,0,0,1-.25,1.56,3.41,3.41,0,0,1-1.11,1.33,6.65,6.65,0,0,1-2.6,1c-1.18.24,1.53,2.23-.25,2.28l-2.22-2c-5.56.12-6.8,1.51-7.12-2.59a98.66,98.66,0,0,1-9.95,1,59.25,59.25,0,0,1-8.68-.07c0,1.23,0,2.45,0,3.68-.08,10.31,7.14,8.3,21.49,8.07l4.32-.09a43,43,0,0,0,9.34-1.11,20.86,20.86,0,0,0,6.26-2.45,12,12,0,0,0,5.29-7.63,19.18,19.18,0,0,0,.26-4.39c0-.27,0-.55,0-.82C170.49,214.8,168.93,211.64,166.05,209.7Z"/><path class="cls-2" d="M204.92,184.89a238.83,238.83,0,0,1-35.08,5.84l.38,12.92a118,118,0,0,0,12.09-2v35.25l4.33-2.7a25.26,25.26,0,0,0,12.06-21.51l-.07-17s3-4.27,4.42-6.78C203.7,187.64,204.4,186.1,204.92,184.89Z"/><path class="cls-2" d="M51.55,185.67a31.61,31.61,0,0,0,1.36,2.86c.84,1.41,4,5.26,4,5.26L57,212.61A24.89,24.89,0,0,0,69.34,233.9l4,2.36V200.83L86.05,203l.54-12.27A326.65,326.65,0,0,1,51.55,185.67Z"/></g><g id="eye"><rect class="cls-3" x="149.04" y="66.3" width="74.76" height="72.72" rx="36.36"/><ellipse class="cls-4" cx="186.42" cy="102.66" rx="30.83" ry="29.98"/><line class="cls-5" x1="170.76" y1="88.08" x2="197.41" y2="114.01"/><line class="cls-6" x1="170.76" y1="114.01" x2="197.41" y2="88.08"/></g><g id="eye-2" data-name="eye"><rect class="cls-7" x="34.57" y="66.3" width="74.76" height="72.72" rx="36.36"/><ellipse class="cls-4" cx="71.95" cy="102.66" rx="30.83" ry="29.98"/><line class="cls-8" x1="56.94" y1="88.08" x2="83.59" y2="114.01"/><line class="cls-9" x1="56.94" y1="114.01" x2="83.59" y2="88.08"/></g><path id="cap" class="cls-10" d="M233.21,106v8.91c0,4.38-10.51-19.85-31-19.85L55,95c-18.51,0-32.41,24.34-32.41,20V106a86.93,86.93,0,0,1,1.23-11.93C27.81,73.84,36.5,4.64,127.9,4.64,221,4.64,228,74.06,232,94.08A85.41,85.41,0,0,1,233.21,106Z"/><path id="smile" class="cls-11" d="M127.9,237.48c-60.1,0-93.33-42.51-93.33-71.9v-5.91c0-14.11,12-25.59,26.72-25.63,1.75,0,35.07-.84,66.61-.84,26.88,0,64.85.8,66.61.84,14.74,0,26.73,11.52,26.73,25.63v4.13c0,17.4-8.76,35.82-23.42,49.27C185.68,224.2,163.7,237.48,127.9,237.48ZM61.36,145.16c-8.47,0-15.36,6.51-15.36,14.51v5.91c0,9.12,5.24,24.64,20,38.35,11,10.23,30.71,22.42,61.89,22.42,56.49,0,81.9-36.58,81.9-62.55v-4.13c0-8-6.89-14.51-15.36-14.51h-.13c-.39,0-39.16-.84-66.41-.84-32.1,0-66.05.83-66.39.84Z"/><ellipse id="nose" class="cls-12" cx="129.49" cy="124.75" rx="42.86" ry="35.25"/><path id="protect" class="cls-13" d="M226.42,90.9c-7.48-7.49-16.93-11.29-28.09-11.29-9.31,0-19.56-.56-30.41-1.15C155.17,77.76,142,77,127.9,77c-8.73,0-20.6.6-33.16,1.23-13.15.66-26.74,1.34-37.07,1.34-11.16,0-20.61,3.8-28.09,11.29C12,108.55,12.38,141.21,12.45,144c0,26.77,9.58,53.32,26.2,72.86C53.18,234,80.47,254.32,128,254.32s74.82-20.36,89.35-37.43C234,197.35,243.52,170.8,243.55,144,243.62,141.22,244,108.55,226.42,90.9Zm-196,53v-.27c-.24-7.68,1.46-29.94,12.07-40.57,4-4,9-6,15.19-6,1.53,0,3.13,0,4.78,0V215.85C38.27,195.7,30.42,165.24,30.42,143.91Zm47.66,82.2V96.55c5.75-.24,11.71-.54,17.59-.83,12.32-.62,24-1.2,32.23-1.2,13.59,0,26.51.7,39,1.38q4.76.27,9.36.5V226.92c-12.85,6.16-28.74,9.92-48.27,9.92C107.63,236.84,91.21,232.76,78.08,226.11Zm147.51-82.47v.27c0,21.81-8.21,53.16-33.68,73.28V97c2.17,0,4.32.08,6.43.08,6.19,0,11.15,2,15.17,6C224.05,113.6,225.8,135.94,225.59,143.64Z"/><ellipse class="cls-14" cx="177.33" cy="39.83" rx="5" ry="4.86"/><ellipse class="cls-14" cx="148.17" cy="110.59" rx="5" ry="4.86"/><path class="cls-15" d="M50.91,208.08a81.3,81.3,0,0,1-14.46-22.74"/></g></g></svg>