<svg xmlns="http://www.w3.org/2000/svg" xmlns:xlink="http://www.w3.org/1999/xlink" viewBox="0 0 256 256"><defs><style>.cls-1,.cls-15{fill:none;}.cls-2{fill:#f7f7f7;}.cls-3{fill:url(#radial-gradient);}.cls-4,.cls-5,.cls-6,.cls-8,.cls-9{fill:#ef9506;}.cls-15,.cls-5,.cls-6,.cls-8,.cls-9{stroke-linecap:round;}.cls-10,.cls-11,.cls-12,.cls-15,.cls-5,.cls-6,.cls-8,.cls-9{stroke-miterlimit:10;}.cls-5,.cls-6,.cls-8,.cls-9{stroke-width:9.64px;}.cls-5{stroke:url(#New_Gradient_Swatch);}.cls-6{stroke:url(#New_Gradient_Swatch-2);}.cls-7{fill:url(#radial-gradient-2);}.cls-8{stroke:url(#New_Gradient_Swatch-3);}.cls-9{stroke:url(#New_Gradient_Swatch-4);}.cls-10{stroke-width:3.87px;fill:url(#radial-gradient-3);stroke:url(#New_Gradient_Swatch-5);}.cls-11{fill:#e8e8e8;stroke-width:2.89px;stroke:url(#New_Gradient_Swatch-6);}.cls-12{stroke-width:2.77px;fill:url(#radial-gradient-4);stroke:url(#New_Gradient_Swatch-7);}.cls-13{fill:url(#New_Gradient_Swatch-8);}.cls-14{fill:#fff;}.cls-15{stroke:#4c4c4c;stroke-width:2px;}</style><radialGradient id="radial-gradient" cx="196.1" cy="88.8" r="22.56" gradientUnits="userSpaceOnUse"><stop offset="0.17" stop-color="#fcdf9a"/><stop offset="0.92" stop-color="#ffae1a"/></radialGradient><linearGradient id="New_Gradient_Swatch" x1="719.25" y1="213.61" x2="753.51" y2="213.61" gradientTransform="translate(393.41 -633.56) rotate(90)" gradientUnits="userSpaceOnUse"><stop offset="0"/><stop offset="1"/></linearGradient><linearGradient id="New_Gradient_Swatch-2" x1="162.66" y1="102.82" x2="196.92" y2="102.82" gradientTransform="translate(0 0)" xlink:href="#New_Gradient_Swatch"/><radialGradient id="radial-gradient-2" cx="90.39" cy="88.8" r="22.56" xlink:href="#radial-gradient"/><linearGradient id="New_Gradient_Swatch-3" x1="719.25" y1="318.73" x2="753.51" y2="318.73" xlink:href="#New_Gradient_Swatch"/><linearGradient id="New_Gradient_Swatch-4" x1="57.55" y1="102.82" x2="91.81" y2="102.82" gradientTransform="translate(0 0)" xlink:href="#New_Gradient_Swatch"/><radialGradient id="radial-gradient-3" cx="174.45" cy="41.51" r="26.65" gradientTransform="translate(0 3.13)" gradientUnits="userSpaceOnUse"><stop offset="0" stop-color="#fcdf9a"/><stop offset="1" stop-color="#ffae1a"/></radialGradient><linearGradient id="New_Gradient_Swatch-5" x1="28.72" y1="63.89" x2="227.09" y2="63.89" gradientTransform="matrix(1, 0, 0, 1, 0, 0)" xlink:href="#New_Gradient_Swatch"/><linearGradient id="New_Gradient_Swatch-6" x1="40.27" y1="182.85" x2="215.55" y2="182.85" gradientTransform="matrix(1, 0, 0, 1, 0, 0)" xlink:href="#New_Gradient_Swatch"/><radialGradient id="radial-gradient-4" cx="145.6" cy="99.44" r="25.86" gradientTransform="translate(0 26.16) scale(1 0.85)" xlink:href="#radial-gradient"/><linearGradient id="New_Gradient_Swatch-7" x1="88.41" y1="125.33" x2="170.33" y2="125.33" gradientTransform="matrix(1, 0, 0, 1, 0, 0)" xlink:href="#New_Gradient_Swatch"/><linearGradient id="New_Gradient_Swatch-8" x1="21.28" y1="164.19" x2="234.72" y2="164.19" gradientTransform="matrix(1, 0, 0, 1, 0, 0)" xlink:href="#New_Gradient_Swatch"/></defs><g id="Layer_2" data-name="Layer 2"><g id="preserve_head"><rect id="safearea" class="cls-1" width="256" height="256"/><g id="text"><path class="cls-2" d="M79.74,159.94q-8.92-.31-17.84-.74l0-12.17H51v30.68q5.41,1.28,10.85,2.5,0-5.93,0-11.84,8.91.75,17.83,1.29l0,13.9q5,.49,10,.89,0-18.7.08-37.42h-10Z"/><path class="cls-2" d="M205.39,158a12.61,12.61,0,0,0-2-4.14,13.3,13.3,0,0,0-3.71-3.52,19.64,19.64,0,0,0-6-2.38,35.18,35.18,0,0,0-8.45-.93H165l.08,34.86c-4.65-11.31-9.3-23-13.94-34.86H136.51c-4.19,11.55-8.39,23.14-12.6,34.67v-5.48q-10.6-.08-21.2-.49v-5.25q10.23.33,20.46.4c0-3.16,0-6.31,0-9.47q-10.23,0-20.45-.24c0-1.59,0-3.19,0-4.78q10.43.13,20.86.16V147H92l-.09,37.59q15.19,1.13,30.44,1.3h1.54c3.18,0,6.36,0,9.55,0l2.19-6.3q8.17-.1,16.35-.43l2.25,6.08c3.63-.19,7.25-.42,10.88-.69h0l.37,0,.71-.05h0q9.63-.74,19.23-1.84a33.15,33.15,0,0,0,8.64-2.1,21.93,21.93,0,0,0,5.92-3.36,16.64,16.64,0,0,0,3.59-4.21,15.46,15.46,0,0,0,1.87-4.52,21.28,21.28,0,0,0,.48-4.6v-1.32A18.3,18.3,0,0,0,205.39,158ZM139,169.89q2.34-6.72,4.68-13.39,2.4,6.63,4.82,13.21C145.32,169.79,142.16,169.85,139,169.89Zm45.12,3.46c-2.7.23-5.4.43-8.1.62q0-8.67,0-17.34l8.1-.22c7-.19,10.55,2.34,10.56,7.63v.28C194.64,169.67,191.14,172.74,184.11,173.35Z"/><path class="cls-2" d="M101.89,213.21q10.56.36,21.11.44c0-3.37,0-6.73.07-10.09q-10.42-.08-20.84-.43c.06-1.72.12-3.45.17-5.18q10.57.36,21.14.43l.06-8.65c-11.9-.16-22.49-.77-31.65-1.6Q91,208.47,90,228.8q16.78.8,33.61.9l.06-10.36q-11-1-21.95-2.22C101.81,215.82,101.85,214.52,101.89,213.21Z"/><path class="cls-2" d="M163.14,206c-2.67-1.84-7-2.75-12.94-2.82-1.89,0-3.78,0-5.68,0a16.83,16.83,0,0,1-4.41-.45,3.89,3.89,0,0,1-2-1.06,2.58,2.58,0,0,1-.46-1.56V200a2.75,2.75,0,0,1,.36-1.54,3.6,3.6,0,0,1,2-1.08,16.45,16.45,0,0,1,4.54-.55h.42c4.79-.1,7.35,1.28,7.69,4.21q6.53-.19,13.06-.49l0-.44c-.29-5.81-3.25-9.51-8.85-11.27-7.61.55-16.13.91-25.58.94a12.32,12.32,0,0,0-1.15.57,10,10,0,0,0-3.18,2.79,10.49,10.49,0,0,0-1.69,3.42,15.78,15.78,0,0,0-.48,3.93v.5c-.06,7.94,5.13,12.18,15.59,12.42l5.93.11a19.88,19.88,0,0,1,4.93.53,4,4,0,0,1,2.18,1.16,3.32,3.32,0,0,1,.51,1.85v.06a3.63,3.63,0,0,1-.23,1.48,3.18,3.18,0,0,1-1,1.26,5.79,5.79,0,0,1-2.4,1c-1.09.23,1.42,2.12-.23,2.16l-2.05-1.86c-5.14.11-6.28,1.43-6.57-2.46a87.69,87.69,0,0,1-9.2.94,53.72,53.72,0,0,1-8-.07c0,1.17,0,2.33,0,3.49-.07,9.79,6.59,7.88,19.85,7.66l4-.08a38.69,38.69,0,0,0,8.62-1.05,19,19,0,0,0,5.78-2.33,10.94,10.94,0,0,0,3.33-3.38,11.28,11.28,0,0,0,1.56-3.86,18.52,18.52,0,0,0,.24-4.17c0-.26,0-.52,0-.78Q167.14,208.74,163.14,206Z"/><path class="cls-2" d="M199,182.42a214.92,214.92,0,0,1-32.4,5.55l.35,12.26a107.41,107.41,0,0,0,11.17-1.93v33.47l4-2.56a24.14,24.14,0,0,0,11.13-20.43l-.06-16.18s2.8-4,4.08-6.44C197.91,185,198.55,183.58,199,182.42Z"/><path class="cls-2" d="M57.4,183.16c.4,1,.91,2.11,1.26,2.72.77,1.34,3.65,5,3.65,5l.08,17.88A23.74,23.74,0,0,0,73.82,229l3.7,2.24V197.56l11.74,2,.49-11.65A293.5,293.5,0,0,1,57.4,183.16Z"/></g><g id="eye"><rect class="cls-3" x="147.43" y="69.83" width="69.04" height="69.04" rx="34.52"/><circle class="cls-4" cx="181.95" cy="104.35" r="28.47"/><line class="cls-5" x1="167.49" y1="90.51" x2="192.1" y2="115.13"/><line class="cls-6" x1="167.49" y1="115.13" x2="192.1" y2="90.51"/></g><g id="eye-2" data-name="eye"><rect class="cls-7" x="41.71" y="69.83" width="69.04" height="69.04" rx="34.52"/><circle class="cls-4" cx="76.23" cy="104.35" r="28.47"/><line class="cls-8" x1="62.37" y1="90.51" x2="86.99" y2="115.13"/><line class="cls-9" x1="62.37" y1="115.13" x2="86.99" y2="90.51"/></g><path id="cap" class="cls-10" d="M225.16,107.53V116c0,4.16-9.7-18.84-28.58-18.84L60.6,97C43.5,97,30.66,120.15,30.66,116v-8.46A84.13,84.13,0,0,1,31.8,96.21C35.47,77,43.5,11.29,127.91,11.29c86,0,92.44,65.9,96.11,84.92A82.54,82.54,0,0,1,225.16,107.53Z"/><path id="smile" class="cls-11" d="M127.91,232.36c-55.5,0-86.2-40.37-86.2-68.27v-5.61a24.58,24.58,0,0,1,24.68-24.34c1.62,0,32.39-.79,61.52-.79,24.82,0,59.89.76,61.51.79a24.57,24.57,0,0,1,24.68,24.34v3.92c0,16.52-8.08,34-21.62,46.78C181.27,219.75,161,232.36,127.91,232.36ZM66.46,144.71a14,14,0,0,0-14.18,13.77v5.61c0,8.66,4.84,23.39,18.47,36.41,10.18,9.71,28.36,21.29,57.16,21.29,52.17,0,75.63-34.73,75.63-59.39v-3.92a14,14,0,0,0-14.18-13.77h-.12c-.36,0-36.16-.8-61.33-.8-29.65,0-61,.79-61.32.79Z"/><ellipse id="nose" class="cls-12" cx="129.37" cy="125.33" rx="39.58" ry="33.47"/><path id="protect" class="cls-13" d="M218.89,93.19C212,86.07,203.26,82.46,193,82.46c-8.6,0-18.07-.53-28.09-1.09-11.77-.66-23.94-1.34-37-1.34-8.07,0-19,.56-30.62,1.16-12.15.63-24.7,1.27-34.24,1.27-10.31,0-19,3.61-25.94,10.73C20.86,109.94,21.23,141,21.29,143.63c0,25.42,8.84,50.63,24.2,69.18C58.9,229,84.11,248.34,128,248.34s69.1-19.32,82.52-35.53c15.35-18.55,24.16-43.76,24.19-69.18C234.77,141,235.15,109.94,218.89,93.19Zm-181,50.33v-.26C37.66,136,39.23,114.83,49,104.74a18.53,18.53,0,0,1,14-5.69l4.42,0v112.8C45.14,192.69,37.88,163.77,37.88,143.52Zm44,78v-123c5.31-.23,10.81-.51,16.24-.79,11.38-.59,22.13-1.14,29.77-1.14,12.54,0,24.48.67,36,1.32l8.64.47V222.33c-11.87,5.85-26.55,9.42-44.58,9.42C109.19,231.75,94,227.87,81.9,221.56Zm136.22-78.3v.26c0,20.7-7.59,50.47-31.11,69.58V99q3,.08,5.94.07a18.59,18.59,0,0,1,14,5.66C216.71,114.73,218.32,136,218.12,143.26Z"/><circle class="cls-14" cx="173.55" cy="44.69" r="4.62"/><circle class="cls-14" cx="146.63" cy="111.88" r="4.62"/><path class="cls-15" d="M56.81,204.45a77.38,77.38,0,0,1-13.35-21.6"/></g></g></svg>