<svg xmlns="http://www.w3.org/2000/svg" xmlns:xlink="http://www.w3.org/1999/xlink" viewBox="0 0 225.65 252.68"><defs><style>.cls-1{fill:#b2b2b2;}.cls-2{fill:#878787;}.cls-3{fill:url(#New_Gradient_Swatch);}.cls-4{fill:url(#New_Gradient_Swatch-2);}.cls-5,.cls-6,.cls-8,.cls-9{fill:#ef9506;stroke-linecap:round;stroke-width:10.19px;}.cls-10,.cls-5,.cls-6,.cls-8,.cls-9{stroke-miterlimit:10;}.cls-5{stroke:url(#New_Gradient_Swatch-3);}.cls-6{stroke:url(#New_Gradient_Swatch-4);}.cls-7{fill:url(#New_Gradient_Swatch-5);}.cls-8{stroke:url(#New_Gradient_Swatch-6);}.cls-9{stroke:url(#New_Gradient_Swatch-7);}.cls-10{stroke-width:4.13px;fill:url(#radial-gradient);stroke:url(#New_Gradient_Swatch-8);}.cls-11{fill:#777;}.cls-12{fill:#020202;}.cls-13{fill:url(#New_Gradient_Swatch-9);}.cls-14{fill:#fff;}</style><linearGradient id="New_Gradient_Swatch" x1="17.6" y1="183.45" x2="207.85" y2="183.45" gradientUnits="userSpaceOnUse"><stop offset="0"/><stop offset="1"/></linearGradient><linearGradient id="New_Gradient_Swatch-2" x1="131.09" y1="105.41" x2="204.08" y2="105.41" xlink:href="#New_Gradient_Swatch"/><linearGradient id="New_Gradient_Swatch-3" x1="-4441.26" y1="-1832.63" x2="-4405.04" y2="-1832.63" gradientTransform="translate(-1664.14 4526.94) rotate(90)" xlink:href="#New_Gradient_Swatch"/><linearGradient id="New_Gradient_Swatch-4" x1="149.47" y1="103.79" x2="185.68" y2="103.79" gradientTransform="translate(0 0)" xlink:href="#New_Gradient_Swatch"/><linearGradient id="New_Gradient_Swatch-5" x1="19.96" y1="103.41" x2="92.95" y2="103.41" xlink:href="#New_Gradient_Swatch"/><linearGradient id="New_Gradient_Swatch-6" x1="-4443.26" y1="-1720.59" x2="-4407.04" y2="-1720.59" gradientTransform="translate(-1664.14 4526.94) rotate(90)" xlink:href="#New_Gradient_Swatch"/><linearGradient id="New_Gradient_Swatch-7" x1="38.35" y1="101.79" x2="74.56" y2="101.79" gradientTransform="translate(0 0)" xlink:href="#New_Gradient_Swatch"/><radialGradient id="radial-gradient" cx="161.93" cy="34.45" r="28.17" gradientTransform="translate(0 2.88)" gradientUnits="userSpaceOnUse"><stop offset="0" stop-color="#fcdf9a"/><stop offset="1" stop-color="#ffae1a"/></radialGradient><linearGradient id="New_Gradient_Swatch-8" x1="7.85" y1="57.68" x2="217.61" y2="57.68" xlink:href="#New_Gradient_Swatch"/><linearGradient id="New_Gradient_Swatch-9" x1="0" y1="163.71" x2="225.65" y2="163.71" xlink:href="#New_Gradient_Swatch"/></defs><g id="Layer_2" data-name="Layer 2"><g id="Layer_41" data-name="Layer 41"><g id="flat"><path class="cls-1" d="M46.44,142.28c-9.83,1.78-13.67,7.37-13.67,15.4v5.93c0,9.16,5.12,24.73,19.53,38.49,10.76,10.27,30,22.52,60.43,22.52,55.15,0,80-36.72,80-62.8v-4.14a14.8,14.8,0,0,0-15-14.56S78.36,136.48,46.44,142.28Z"/><path class="cls-2" d="M112.73,235.78c-58.68,0-91.13-42.67-91.13-72.17v-5.93A26,26,0,0,1,47.69,132c1.71,0,34.24-.84,65-.84,26.24,0,63.31.81,65,.84a26,26,0,0,1,26.09,25.73v4.14c0,17.47-8.54,36-22.86,49.46C169.14,222.46,147.68,235.78,112.73,235.78Zm-65-92.66a14.8,14.8,0,0,0-15,14.56v5.93c0,9.16,5.12,24.73,19.53,38.49,10.76,10.27,30,22.52,60.43,22.52,55.15,0,80-36.72,80-62.8v-4.14a14.8,14.8,0,0,0-15-14.56h-.12c-.38,0-38.24-.84-64.84-.84-31.34,0-64.49.83-64.82.84Z"/><path class="cls-3" d="M112.73,131.11c26.24,0,63.31.81,65,.84a26,26,0,0,1,26.09,25.73v4.14c0,17.47-8.54,36-22.86,49.46-11.85,11.18-33.31,24.5-68.26,24.5-58.68,0-91.13-42.67-91.13-72.17v-5.93A26,26,0,0,1,47.69,132c1.71,0,34.24-.84,65-.84m0,93.51c55.15,0,80-36.72,80-62.8v-4.14a14.8,14.8,0,0,0-15-14.56h-.12c-.38,0-38.24-.84-64.84-.84-31.34,0-64.49.83-64.82.84h-.15a14.8,14.8,0,0,0-15,14.56v5.93c0,9.16,5.12,24.73,19.53,38.49,10.76,10.27,30,22.52,60.43,22.52m0-97.51c-30.6,0-63.18.8-65.1.84a30,30,0,0,0-30,29.73v5.93c0,16.9,9.29,35.62,24.84,50.08,12.81,11.9,35.4,26.09,70.29,26.09,36.26,0,58.63-13.92,71-25.59,15.1-14.24,24.11-33.82,24.11-52.37v-4.14a30,30,0,0,0-30-29.73c-2.05,0-38.81-.84-65.08-.84Zm0,93.51c-29.12,0-47.43-11.65-57.66-21.41-13.51-12.89-18.3-27.23-18.3-35.6v-5.93a10.8,10.8,0,0,1,11-10.56H48c3.47-.09,34.74-.84,64.69-.84,26.56,0,64.39.83,64.74.84h.19a10.81,10.81,0,0,1,11,10.56v4.14c0,24.41-23.57,58.8-76,58.8Z"/><rect class="cls-4" x="131.09" y="68.91" width="72.99" height="72.99" rx="36.49"/><circle class="cls-2" cx="167.58" cy="105.41" r="30.1"/><line class="cls-5" x1="155.48" y1="90.77" x2="181.5" y2="116.8"/><line class="cls-6" x1="154.57" y1="116.8" x2="180.59" y2="90.77"/><rect class="cls-7" x="19.96" y="66.91" width="72.99" height="72.99" rx="36.49"/><circle class="cls-2" cx="56.46" cy="103.41" r="30.1"/><line class="cls-8" x1="43.44" y1="88.77" x2="69.47" y2="114.8"/><line class="cls-9" x1="43.44" y1="114.8" x2="69.47" y2="88.77"/><path id="cap" class="cls-10" d="M215.54,103.82v8.94c0,4.4-10.25-19.92-30.21-19.92L41.57,92.72c-18.08,0-31.65,24.44-31.65,20v-8.94a88.89,88.89,0,0,1,1.2-12C15,71.53,23.49,2.07,112.73,2.07c90.94,0,97.73,69.67,101.6,89.78A87.31,87.31,0,0,1,215.54,103.82Z"/><path class="cls-11" d="M112.83,147.8c-22.23,0-40.31-14.15-40.31-31.56S90.6,84.69,112.83,84.69s40.3,14.15,40.3,31.55S135.05,147.8,112.83,147.8Z"/><path class="cls-12" d="M112.82,86.22c21.38,0,38.78,13.47,38.78,30s-17.4,30-38.78,30-38.77-13.47-38.77-30,17.39-30,38.77-30m0-3.07C89.72,83.15,71,98,71,116.24s18.74,33.1,41.84,33.1,41.85-14.82,41.85-33.1-18.74-33.09-41.85-33.09Z"/><path class="cls-13" d="M208.91,88.65c-7.3-7.52-16.52-11.33-27.42-11.33-9.09,0-19.1-.56-29.69-1.16-12.45-.7-25.32-1.42-39.07-1.42-8.53,0-20.11.6-32.38,1.23-12.83.66-26.11,1.35-36.19,1.35-10.9,0-20.12,3.81-27.42,11.33C-.44,106.36,0,139.15,0,142c0,26.87,9.35,53.53,25.58,73.14,14.18,17.14,40.83,37.56,87.23,37.56s73.06-20.42,87.24-37.56c16.23-19.61,25.55-46.27,25.58-73.14C225.7,139.15,226.09,106.36,208.91,88.65ZM17.55,141.86v-.27c-.24-7.71,1.42-30,11.78-40.73a19.6,19.6,0,0,1,14.83-6c1.5,0,3.06,0,4.67,0V214.08C25.22,193.84,17.55,163.27,17.55,141.86Zm46.53,82.51v-130c5.62-.25,11.44-.55,17.18-.84,12-.62,23.39-1.21,31.47-1.21,13.26,0,25.88.71,38.08,1.39q4.65.27,9.14.5v131c-12.54,6.19-28.06,10-47.13,10C92.94,235.14,76.91,231,64.08,224.37Zm144-82.78v.27c0,21.89-8,53.36-32.89,73.56V94.78c2.12,0,4.22.08,6.28.08a19.59,19.59,0,0,1,14.81,6C206.61,111.43,208.31,133.86,208.1,141.59Z"/></g></g><g id="preserve_head"><ellipse class="cls-14" cx="162.15" cy="38.17" rx="5" ry="4.86"/></g></g></svg>